<?xml version="1.0" encoding="UTF-8"?>
<svg version="1.1" xmlns="http://www.w3.org/2000/svg" width="1024" height="1024">
<path d="M0 0 C337.92 0 675.84 0 1024 0 C1024 337.92 1024 675.84 1024 1024 C686.08 1024 348.16 1024 0 1024 C0 686.08 0 348.16 0 0 Z " fill="#111518" transform="translate(0,0)"/>
<path d="M0 0 C2.14172871 -0.00216604 4.28292418 -0.02028853 6.42456055 -0.03930664 C17.79006707 -0.08837338 28.55160898 0.7524226 39.11010742 5.24780273 C39.82859863 5.54944336 40.54708984 5.85108398 41.28735352 6.16186523 C48.21055303 9.21208647 53.87749299 13.22953792 59.61010742 18.18530273 C60.27268555 18.72541992 60.93526367 19.26553711 61.61791992 19.82202148 C70.33680441 27.58300162 76.60937688 40.26664101 77.9074707 51.83544922 C78.04608689 54.56430016 78.07794279 57.26569385 78.04760742 59.99780273 C78.03624756 61.44074707 78.03624756 61.44074707 78.0246582 62.9128418 C77.66643307 78.44987653 71.6684503 90.56066243 61.09057617 101.86499023 C42.3399917 119.40490705 17.01064243 122.1005461 -7.38500977 121.36450195 C-14.06970192 120.96585359 -20.07310429 119.40171968 -26.38989258 117.18530273 C-27.58614258 116.77280273 -28.78239258 116.36030273 -30.01489258 115.93530273 C-45.54857727 109.93984548 -58.35996008 99.1004928 -65.35864258 83.77905273 C-70.70784142 70.32500715 -72.1500492 53.43915818 -66.64379883 39.77905273 C-58.29889408 22.5173183 -45.24962927 10.70888446 -27.26879883 4.02514648 C-17.94627892 0.84156869 -9.81292677 -0.00110843 0 0 Z " fill="#259DA1" transform="translate(450.389892578125,436.814697265625)"/>
<path d="M0 0 C33 0 33 0 41.625 6.5 C43.54380834 8.99445084 45.28141311 11.39345139 47 14 C48.14125874 15.33465196 49.30343705 16.65219674 50.5 17.9375 C51.01046875 18.53949219 51.5209375 19.14148438 52.046875 19.76171875 C54.87022228 22.99727474 57.81340073 26.1173416 60.75 29.25 C65.96428748 34.81571202 71.14301684 40.41010346 76.2890625 46.0390625 C79.18206594 49.20255859 82.09062697 52.35156438 85 55.5 C85.9961412 56.57938329 86.99223506 57.65881028 87.98828125 58.73828125 C90.04539389 60.96743598 92.10598805 63.19331716 94.16796875 65.41796875 C95.1745806 66.50771881 96.18109475 67.59755914 97.1875 68.6875 C97.89229492 69.44546875 97.89229492 69.44546875 98.61132812 70.21875 C101.88646982 73.77293964 101.88646982 73.77293964 103 76 C103.33 50.92 103.66 25.84 104 0 C112.58 0 121.16 0 130 0 C130 36.63 130 73.26 130 111 C99 111 99 111 90.3125 103.8125 C87 99.375 87 99.375 85.48828125 97.12890625 C83.22907481 93.897233 80.54475365 91.14310249 77.8125 88.3125 C76.8317328 87.25398412 75.85383256 86.1928042 74.87890625 85.12890625 C74.40211426 84.61086426 73.92532227 84.09282227 73.43408203 83.55908203 C72.48176393 82.52375629 71.52961413 81.48827572 70.57763672 80.45263672 C64.42656083 73.76210368 58.23517582 67.11230636 52 60.5 C47.0864012 55.2872262 42.17986583 50.06851481 37.3125 44.8125 C36.84392578 44.30847656 36.37535156 43.80445313 35.89257812 43.28515625 C32.80226602 39.9384427 29.92475247 36.50970296 27 33 C26.67 58.74 26.34 84.48 26 111 C17.42 111 8.84 111 0 111 C0 74.37 0 37.74 0 0 Z " fill="#259BA0" transform="translate(547,442)"/>
<path d="M0 0 C1.28753174 0.00161133 2.57506348 0.00322266 3.90161133 0.00488281 C13.53788468 0.12883765 21.85260141 1.14082102 30.9375 4.375 C31.84628906 4.66375 32.75507812 4.9525 33.69140625 5.25 C44.5914941 9.07100106 55.2770091 16.78236972 62.9375 25.375 C62.9375 28.375 62.9375 28.375 61.21484375 30.42578125 C60.05662109 31.54533203 60.05662109 31.54533203 58.875 32.6875 C58.0603125 33.47640625 57.245625 34.2653125 56.40625 35.078125 C53.3247874 37.94505539 50.17635971 40.68743556 46.9375 43.375 C43.2503817 42.05258831 40.43300463 40.41592406 37.3125 38.0625 C22.39240273 27.40528766 5.71219865 25.26049628 -12.21533203 27.66357422 C-24.36779992 30.05175374 -34.90179708 37.41511321 -42.0625 47.375 C-48.45424048 57.87571651 -50.85452114 68.56762337 -48.375 80.75390625 C-46.44592187 87.69054969 -44.03466185 93.14642621 -39.0625 98.375 C-38.42570313 99.05175781 -37.78890625 99.72851562 -37.1328125 100.42578125 C-25.24485565 111.98714588 -10.74900994 114.79270593 5.18945312 114.81640625 C19.55273494 114.47467761 34.16568101 109.03249289 44.9375 99.375 C49.25936638 101.39163442 52.57025324 104.18416281 56.1875 107.25 C56.8371875 107.77980469 57.486875 108.30960938 58.15625 108.85546875 C58.76984375 109.37496094 59.3834375 109.89445313 60.015625 110.4296875 C60.85722168 111.13327393 60.85722168 111.13327393 61.71582031 111.85107422 C62.9375 113.375 62.9375 113.375 62.9375 117.375 C50.99357879 131.67821428 30.40041156 139.32755858 12.31982422 141.17871094 C-10.68199476 143.07392127 -34.27793779 139.17909351 -52.6484375 124.27734375 C-55.19755047 122.04591303 -57.64276699 119.74560138 -60.0625 117.375 C-60.69027344 116.78332031 -61.31804688 116.19164062 -61.96484375 115.58203125 C-73.20159834 104.03951464 -78.01570832 87.59485131 -78.4375 71.875 C-77.89530266 51.66772212 -69.91662145 35.53588245 -55.94921875 21.20703125 C-40.20161704 6.32310057 -21.24339974 -0.02750845 0 0 Z " fill="#259CA1" transform="translate(835.0625,418.625)"/>
<path d="M0 0 C35.31 0 70.62 0 107 0 C107 7.92 107 15.84 107 24 C80.6 24 54.2 24 27 24 C27 30.93 27 37.86 27 45 C47.46 45 67.92 45 89 45 C89 52.59 89 60.18 89 68 C68.54 68 48.08 68 27 68 C27 74.27 27 80.54 27 87 C53.4 87 79.8 87 107 87 C107 94.92 107 102.84 107 111 C71.69 111 36.38 111 0 111 C0 74.37 0 37.74 0 0 Z " fill="#259B9F" transform="translate(257,442)"/>
<path d="M0 0 C9.24 0 18.48 0 28 0 C28 34.65 28 69.3 28 105 C54.73 105 81.46 105 109 105 C109 113.58 109 122.16 109 131 C73.03 131 37.06 131 0 131 C0 87.77 0 44.54 0 0 Z " fill="#259B9F" transform="translate(129,422)"/>
<path d="M0 0 C5.82652643 5.31278969 10.48062768 13.44409082 11.1171875 21.375 C11.33518079 31.74689126 10.02356412 39.8597755 3.50390625 48.15625 C-7.41047509 59.3928271 -23.07995082 62.29679935 -38.12109375 62.84375 C-52.21671399 62.47365951 -65.48447185 58.48708016 -75.49609375 48.21875 C-82.30073577 39.94022803 -83.82517997 31.49568652 -83.50390625 20.92578125 C-82.9754799 16.06749411 -81.70897782 12.51928204 -79.12109375 8.40625 C-78.72019531 7.72175781 -78.31929688 7.03726562 -77.90625 6.33203125 C-71.96908682 -2.70278228 -62.71757553 -7.09580273 -52.44995117 -9.51293945 C-34.85347073 -13.09989051 -14.62276561 -10.98727139 0 0 Z " fill="#141C20" transform="translate(491.12109375,471.59375)"/>
<path d="M0 0 C35.31 0 70.62 0 107 0 C107 7.92 107 15.84 107 24 C80.6 24 54.2 24 27 24 C27 30.93 27 37.86 27 45 C26.67 45 26.34 45 26 45 C25.97112488 41.35418313 25.95324415 37.70839537 25.9375 34.0625 C25.92912109 33.02158203 25.92074219 31.98066406 25.91210938 30.90820312 C25.90727539 29.42416992 25.90727539 29.42416992 25.90234375 27.91015625 C25.89448853 26.53549194 25.89448853 26.53549194 25.88647461 25.13305664 C26 23 26 23 27 22 C29.46444057 21.90499452 31.90074626 21.87442015 34.36547852 21.88647461 C35.13615662 21.88632858 35.90683472 21.88618256 36.7008667 21.8860321 C39.26024139 21.8867314 41.8195442 21.89452455 44.37890625 21.90234375 C46.14867615 21.90420787 47.91844656 21.9056318 49.68821716 21.90663147 C54.35551366 21.91045712 59.02277923 21.9202878 63.69006348 21.93133545 C68.44897035 21.94154856 73.20788221 21.94612887 77.96679688 21.95117188 C87.31121371 21.96191003 96.65559945 21.9795072 106 22 C106 15.07 106 8.14 106 1 C71.68 1 37.36 1 2 1 C2 36.64 2 72.28 2 109 C36.32 109 70.64 109 106 109 C106 102.07 106 95.14 106 88 C79.93 88 53.86 88 27 88 C27 87.67 27 87.34 27 87 C53.4 87 79.8 87 107 87 C107 94.92 107 102.84 107 111 C71.69 111 36.38 111 0 111 C0 74.37 0 37.74 0 0 Z " fill="#27B0B3" transform="translate(257,442)"/>
<path d="M0 0 C5.67476113 1.96434039 9.31400331 5.62800662 12 11 C12.39645992 16.84778387 11.9269918 20.75160091 9 26 C3.67551782 30.93488593 0.08898195 31.35842084 -7.015625 31.2734375 C-11.07753773 30.90127272 -13.08460596 29.84250919 -16 27 C-19.43433594 22.39075966 -20.67086775 18.90199084 -20.38671875 13.140625 C-19.37235061 7.52573871 -15.45317661 4.16409917 -11 1 C-7.53909109 -0.73045446 -3.79089112 -0.34579074 0 0 Z " fill="#249DA1" transform="translate(724,523)"/>
<path d="M0 0 C3.70981445 1.64880642 6.33252649 3.95145885 9 7 C10.73203805 12.19611416 10.63387005 17.13360485 8.875 22.3125 C6.50626666 25.70768445 4.76367773 27.22080689 1 29 C-4.07744298 29.80908847 -7.82921861 29.59603416 -12.4375 27.25 C-17.25817175 23.01721505 -18.67703406 19.87200781 -19.125 13.53515625 C-18.85986451 8.15787711 -16.25811546 5.14108147 -12.3125 1.5625 C-8.04157369 -0.45208788 -4.64412228 -0.71381879 0 0 Z " fill="#1BACB2" transform="translate(595,596)"/>
<path d="M0 0 C9.24 0 18.48 0 28 0 C27.67 34.65 27.34 69.3 27 105 C26.67 105 26.34 105 26 105 C26 71.01 26 37.02 26 2 C17.75 2 9.5 2 1 2 C1 43.91 1 85.82 1 129 C35.98 129 70.96 129 107 129 C107 121.41 107 113.82 107 106 C81.26 106 55.52 106 29 106 C29 105.67 29 105.34 29 105 C55.4 105 81.8 105 109 105 C109 113.58 109 122.16 109 131 C73.03 131 37.06 131 0 131 C0 87.77 0 44.54 0 0 Z " fill="#26A8AC" transform="translate(129,422)"/>
<path d="M0 0 C1.98 0 3.96 0 6 0 C7.3410005 2.4335567 8.67294856 4.87135301 10 7.3125 C10.3815625 8.00279297 10.763125 8.69308594 11.15625 9.40429688 C14 14.66015625 14 14.66015625 14 18 C14.66 18 15.32 18 16 18 C16.26554688 17.14148438 16.53109375 16.28296875 16.8046875 15.3984375 C18.01023801 11.97089192 19.47244386 8.85826202 21.125 5.625 C21.66382813 4.56539062 22.20265625 3.50578125 22.7578125 2.4140625 C23.16773438 1.61742187 23.57765625 0.82078125 24 0 C26.31 0 28.62 0 31 0 C31 9.57 31 19.14 31 29 C29.35 29 27.7 29 26 29 C25.505 19.1 25.505 19.1 25 9 C22.69 13.95 20.38 18.9 18 24 C16.35 24 14.7 24 13 24 C10.69 19.38 8.38 14.76 6 10 C5.67 15.94 5.34 21.88 5 28 C3.35 28.33 1.7 28.66 0 29 C0 19.43 0 9.86 0 0 Z " fill="#1AA2A9" transform="translate(734,596)"/>
<path d="M0 0 C1.98 0 3.96 0 6 0 C8.97 5.61 11.94 11.22 15 17 C17.97 11.39 20.94 5.78 24 0 C26.31 0 28.62 0 31 0 C31 9.57 31 19.14 31 29 C29.35 29 27.7 29 26 29 C25.505 19.1 25.505 19.1 25 9 C22.69 13.95 20.38 18.9 18 24 C16.35 24 14.7 24 13 24 C10.69 19.38 8.38 14.76 6 10 C5.67 16.27 5.34 22.54 5 29 C3.35 29 1.7 29 0 29 C0 19.43 0 9.86 0 0 Z " fill="#1BA4AB" transform="translate(782,596)"/>
<path d="M0 0 C14 0 14 0 19 3 C20.59869331 6.19738662 20.51085495 9.530167 20 13 C18 16 18 16 16 18 C16.28875 18.54269531 16.5775 19.08539062 16.875 19.64453125 C17.24625 20.35996094 17.6175 21.07539062 18 21.8125 C18.556875 22.87404297 18.556875 22.87404297 19.125 23.95703125 C20 26 20 26 20 29 C17.65625 28.78125 17.65625 28.78125 15 28 C13.45815891 25.77289621 12.50170641 23.5038516 11.40625 21.03125 C9.92002344 18.38202278 9.92002344 18.38202278 5 18 C5 21.63 5 25.26 5 29 C3.35 29 1.7 29 0 29 C0 19.43 0 9.86 0 0 Z " fill="#1B9CA3" transform="translate(659,596)"/>
<path d="M0 0 C14 0 14 0 17.875 2 C20.24163049 5.3411254 20.76457174 7.0606874 20.4765625 11.0625 C19.74522123 14.0358219 18.12943549 15.87056451 16 18 C16.28875 18.54269531 16.5775 19.08539062 16.875 19.64453125 C17.24625 20.35996094 17.6175 21.07539062 18 21.8125 C18.556875 22.87404297 18.556875 22.87404297 19.125 23.95703125 C20 26 20 26 20 29 C18.35 29 16.7 29 15 29 C14.69707031 28.28972656 14.39414062 27.57945312 14.08203125 26.84765625 C13.66308594 25.92855469 13.24414062 25.00945313 12.8125 24.0625 C12.40644531 23.14597656 12.00039063 22.22945312 11.58203125 21.28515625 C9.9704933 18.39211675 9.9704933 18.39211675 5 18 C5 21.63 5 25.26 5 29 C3.35 29 1.7 29 0 29 C0 19.43 0 9.86 0 0 Z " fill="#1AADB4" transform="translate(863,596)"/>
<path d="M0 0 C14 0 14 0 17.875 2.0625 C20 5 20 5 20.625 8.5 C20 12 20 12 17.875 14.5625 C17.25625 15.366875 16.6375 16.17125 16 17 C16.53641935 20.02812283 16.53641935 20.02812283 18 23 C18.66666667 25 19.33333333 27 20 29 C18.35 29 16.7 29 15 29 C14.16151196 27.54462432 13.32936066 26.08559627 12.5 24.625 C12.0359375 23.81289063 11.571875 23.00078125 11.09375 22.1640625 C10 20 10 20 10 18 C8.35 18 6.7 18 5 18 C5 21.3 5 24.6 5 28 C3.35 28.33 1.7 28.66 0 29 C0 19.43 0 9.86 0 0 Z " fill="#1BADB4" transform="translate(543,596)"/>
<path d="M0 0 C6 0 6 0 7.78271484 1.65234375 C8.25402832 2.40644531 8.7253418 3.16054688 9.2109375 3.9375 C9.99404297 5.15566406 9.99404297 5.15566406 10.79296875 6.3984375 C11.31503906 7.25695312 11.83710938 8.11546875 12.375 9 C12.92027344 9.85851562 13.46554687 10.71703125 14.02734375 11.6015625 C15.37057433 13.72245289 16.68782649 15.85975582 18 18 C18.33 12.06 18.66 6.12 19 0 C20.65 0 22.3 0 24 0 C24 9.57 24 19.14 24 29 C19 29 19 29 17.34667969 27.37939453 C16.87649414 26.63802246 16.40630859 25.89665039 15.921875 25.1328125 C15.40109375 24.32972656 14.8803125 23.52664063 14.34375 22.69921875 C13.8178125 21.84972656 13.291875 21.00023437 12.75 20.125 C12.20859375 19.28324219 11.6671875 18.44148437 11.109375 17.57421875 C7.35044643 11.70089286 7.35044643 11.70089286 6 9 C5.67 15.6 5.34 22.2 5 29 C3.35 29 1.7 29 0 29 C0 19.43 0 9.86 0 0 Z " fill="#1BB2B8" transform="translate(355,596)"/>
<path d="M0 0 C13 0 13 0 18 3 C20.36086122 6.54129184 20.57269578 7.82750218 20 12 C17.58436351 16.26762446 17.58436351 16.26762446 15 18 C11.57628531 18.79973794 8.54818144 18.90538183 5 19 C5 22.3 5 25.6 5 29 C3.35 29 1.7 29 0 29 C0 19.43 0 9.86 0 0 Z " fill="#19949B" transform="translate(509,596)"/>
<path d="M0 0 C1.4540625 0.0309375 1.4540625 0.0309375 2.9375 0.0625 C4.44502893 4.33071354 5.94222959 8.60247809 7.4375 12.875 C7.86675781 14.08994141 8.29601562 15.30488281 8.73828125 16.55664062 C9.34736328 18.30170898 9.34736328 18.30170898 9.96875 20.08203125 C10.34580078 21.15557861 10.72285156 22.22912598 11.11132812 23.33520508 C11.9375 26.0625 11.9375 26.0625 11.9375 29.0625 C10.2875 29.0625 8.6375 29.0625 6.9375 29.0625 C6.6075 27.0825 6.2775 25.1025 5.9375 23.0625 C1.9775 23.3925 -1.9825 23.7225 -6.0625 24.0625 C-7.0525 26.5375 -7.0525 26.5375 -8.0625 29.0625 C-9.7125 29.0625 -11.3625 29.0625 -13.0625 29.0625 C-11.37882748 22.22442652 -9.27472478 15.57546984 -6.9375 8.9375 C-6.53893799 7.79970093 -6.53893799 7.79970093 -6.13232422 6.63891602 C-3.79367731 0.07742199 -3.79367731 0.07742199 0 0 Z " fill="#1CADB5" transform="translate(173.0625,595.9375)"/>
<path d="M0 0 C10.89 0 21.78 0 33 0 C33 0.33 33 0.66 33 1 C22.77 1 12.54 1 2 1 C2 36.64 2 72.28 2 109 C9.59 109 17.18 109 25 109 C25 83.92 25 58.84 25 33 C25.33 33 25.66 33 26 33 C26 58.74 26 84.48 26 111 C17.42 111 8.84 111 0 111 C0 74.37 0 37.74 0 0 Z " fill="#26A8AC" transform="translate(547,442)"/>
<path d="M0 0 C3.1875 2 3.1875 2 5 4 C4.67 5.32 4.34 6.64 4 8 C1.03824877 7.38722388 -0.38058783 6.74627478 -3 5 C-6.57176115 5.08167489 -6.57176115 5.08167489 -10 6 C-12.24666134 9.36999202 -12.2457371 10.56105462 -12.1875 14.5 C-12.18105469 15.4590625 -12.17460938 16.418125 -12.16796875 17.40625 C-12.10292931 20.11497767 -12.10292931 20.11497767 -11 23 C-7.62114388 23.28526928 -4.36708009 23.46087248 -1 23 C1.23025247 20.6797907 1.23025247 20.6797907 2 18 C-0.31 18 -2.62 18 -5 18 C-5 16.68 -5 15.36 -5 14 C-1.04 14 2.92 14 7 14 C6.63183475 22.22235723 6.63183475 22.22235723 3.5625 26 C-0.90677519 29.48821478 -4.46011199 29.52806558 -10 29 C-14.2269152 27.25410024 -16.01195538 25.07549148 -18 21 C-19.34041151 17.34433225 -19.38568921 13.85689213 -19 10 C-14.7789604 0.98751004 -9.81410508 -1.23213582 0 0 Z " fill="#1BAEB4" transform="translate(637,596)"/>
<path d="M0 0 C3.1875 2 3.1875 2 5 4 C4.67 5.32 4.34 6.64 4 8 C1.03824877 7.38722388 -0.38058783 6.74627478 -3 5 C-6.6233318 5.12940471 -9.06985031 5.24987928 -11.9375 7.5625 C-13.7903273 11.81310381 -13.68391815 16.09479943 -12.125 20.4375 C-11.06925899 22.15893274 -11.06925899 22.15893274 -9 23 C-7.45976004 23.06950541 -5.91665012 23.08452357 -4.375 23.0625 C-3.55773437 23.05347656 -2.74046875 23.04445313 -1.8984375 23.03515625 C-1.27195312 23.02355469 -0.64546875 23.01195312 0 23 C0.33 21.35 0.66 19.7 1 18 C-1.31 18 -3.62 18 -6 18 C-6 16.68 -6 15.36 -6 14 C-1.71 14 2.58 14 7 14 C6.66344834 20.50666545 5.62130425 23.37869575 1 28 C-2.70990112 29.85495056 -6.95063037 29.44709128 -11 29 C-15.79118656 26.45149651 -17.41173983 23.09915108 -19 18 C-19.68575858 13.19968996 -19.5046484 9.97325049 -17.25 5.625 C-12.09902213 -0.38447418 -7.74542666 -1.08848452 0 0 Z " fill="#1BABB1" transform="translate(302,596)"/>
<path d="M0 0 C5.94 0 11.88 0 18 0 C18 1.65 18 3.3 18 5 C14.04 5 10.08 5 6 5 C6 7.31 6 9.62 6 12 C9.96 12 13.92 12 18 12 C17.67 13.65 17.34 15.3 17 17 C13.37 17 9.74 17 6 17 C6 19.31 6 21.62 6 24 C9.96 24 13.92 24 18 24 C18 25.65 18 27.3 18 29 C12.06 29 6.12 29 0 29 C0 19.43 0 9.86 0 0 Z " fill="#1BA7AC" transform="translate(322,596)"/>
<path d="M0 0 C1.65 0 3.3 0 5 0 C5.02505615 0.6612085 5.0501123 1.32241699 5.07592773 2.00366211 C5.19153102 4.98182305 5.31441754 7.9596392 5.4375 10.9375 C5.47681641 11.97841797 5.51613281 13.01933594 5.55664062 14.09179688 C5.59853516 15.08115234 5.64042969 16.07050781 5.68359375 17.08984375 C5.72025146 18.00628662 5.75690918 18.92272949 5.79467773 19.86694336 C5.77003864 21.9820728 5.77003864 21.9820728 7 23 C10.5 23.16666667 10.5 23.16666667 14 23 C15.65079442 21.34920558 15.22549447 19.36263821 15.31640625 17.08984375 C15.35830078 16.10048828 15.40019531 15.11113281 15.44335938 14.09179688 C15.50233398 12.53041992 15.50233398 12.53041992 15.5625 10.9375 C15.60568359 9.89271484 15.64886719 8.84792969 15.69335938 7.77148438 C15.79981225 5.18113116 15.9018276 2.59067814 16 0 C17.65 0 19.3 0 21 0 C21.1746354 3.89526499 21.28096492 7.7895219 21.375 11.6875 C21.45041016 13.34168945 21.45041016 13.34168945 21.52734375 15.02929688 C21.67112926 22.96146421 21.67112926 22.96146421 19.79589844 25.86328125 C16.99894749 28.34945987 14.22991224 29.69257087 10.5 29.625 C9.7884375 29.63789062 9.076875 29.65078125 8.34375 29.6640625 C4.66145866 28.62074662 2.07186825 27.20610269 0 24 C-0.74076378 19.87353672 -0.56533816 15.86273833 -0.375 11.6875 C-0.34792969 10.56537109 -0.32085937 9.44324219 -0.29296875 8.28710938 C-0.22239001 5.52277541 -0.12384488 2.76237585 0 0 Z " fill="#1BAAAF" transform="translate(417,596)"/>
<path d="M0 0 C5.61 0 11.22 0 17 0 C17 1.32 17 2.64 17 4 C12.71 4 8.42 4 4 4 C4 6.64 4 9.28 4 12 C8.29 12 12.58 12 17 12 C16.67 13.65 16.34 15.3 16 17 C12.37 17 8.74 17 5 17 C5 19.31 5 21.62 5 24 C8.96 24 12.92 24 17 24 C17 25.65 17 27.3 17 29 C11.39 29 5.78 29 0 29 C0 19.43 0 9.86 0 0 Z " fill="#1CADB3" transform="translate(830,596)"/>
<path d="M0 0 C2.97033746 1.98022497 4.65454093 3.35242595 5.40625 6.9375 C5.60871257 11.39167656 4.81743414 14.4240259 2 18 C-1.20173254 19.60086627 -4.52577059 19.49917089 -8 19 C-10.8100346 17.20636089 -12.50940468 15.98119065 -14 13 C-14.39447548 8.81855989 -14.45035186 6.69053952 -12.125 3.125 C-8.53335899 -0.46664101 -4.92249687 -0.80943543 0 0 Z " fill="#131A1C" transform="translate(595,601)"/>
<path d="M0 0 C2.3125 1.27734375 2.3125 1.27734375 4 3 C4 4.32 4 5.64 4 7 C3.29875 6.855625 2.5975 6.71125 1.875 6.5625 C-1.07556141 5.98521625 -4.03270151 5.48304859 -7 5 C-7.33 6.32 -7.66 7.64 -8 9 C-7.39671875 9.31453125 -6.7934375 9.6290625 -6.171875 9.953125 C2.70430443 14.70617592 2.70430443 14.70617592 5 18 C5.75856436 21.96139166 5.3337936 23.48818314 3.125 26.875 C-1.2364394 29.84077879 -4.86820192 29.92540621 -10 29 C-13.125 27.1875 -13.125 27.1875 -15 25 C-15 24.01 -15 23.02 -15 22 C-13.125 21.375 -13.125 21.375 -11 21 C-10.34 21.66 -9.68 22.32 -9 23 C-5.41656024 23.16677282 -5.41656024 23.16677282 -2 23 C-1.67 21.35 -1.34 19.7 -1 18 C-1.86625 17.7525 -2.7325 17.505 -3.625 17.25 C-7.67969543 15.74826095 -11.9892331 14.0215338 -14 10 C-14.37252607 6.57276017 -14.36781772 4.63532152 -12.625 1.625 C-8.65527525 -0.83244866 -4.55189962 -0.80971291 0 0 Z " fill="#1BAEB4" transform="translate(468,596)"/>
<path d="M0 0 C9.24 0 18.48 0 28 0 C27.67 34.65 27.34 69.3 27 105 C26.67 105 26.34 105 26 105 C26 71.01 26 37.02 26 2 C17.75 2 9.5 2 1 2 C1 43.91 1 85.82 1 129 C2.98 129 4.96 129 7 129 C7 129.33 7 129.66 7 130 C4.69 130 2.38 130 0 130 C0 87.1 0 44.2 0 0 Z " fill="#27B2B6" transform="translate(129,422)"/>
<path d="M0 0 C2.31 0 4.62 0 7 0 C7.8427743 2.39287704 8.67437002 4.78871019 9.5 7.1875 C9.73847656 7.86103516 9.97695313 8.53457031 10.22265625 9.22851562 C11.48727592 12.93204467 12.30451221 16.07940536 12 20 C9.65085508 17.65085508 9.26859643 16.04320554 8.375 12.875 C7.98441406 11.50988281 7.98441406 11.50988281 7.5859375 10.1171875 C7.39257812 9.41851563 7.19921875 8.71984375 7 8 C7 9.98 7 11.96 7 14 C6.34 13.67 5.68 13.34 5 13 C4.375 9.9375 4.375 9.9375 4 7 C3.34 7 2.68 7 2 7 C1.855625 8.093125 1.71125 9.18625 1.5625 10.3125 C1 14 1 14 0 17 C2.31 17.33 4.62 17.66 7 18 C7.33 17.01 7.66 16.02 8 15 C8.50833591 16.24663331 9.00631145 17.49749387 9.5 18.75 C9.7784375 19.44609375 10.056875 20.1421875 10.34375 20.859375 C11 23 11 23 11 27 C12.32 26.67 13.64 26.34 15 26 C15 26.99 15 27.98 15 29 C13.35 28.67 11.7 28.34 10 28 C9.67 26.02 9.34 24.04 9 22 C5.37 22.33 1.74 22.66 -2 23 C-2.66 24.98 -3.32 26.96 -4 29 C-5.65 29 -7.3 29 -9 29 C-7.6393319 22.24476394 -5.71290027 15.91424405 -3.375 9.4375 C-3.05015625 8.52419922 -2.7253125 7.61089844 -2.390625 6.66992188 C-1.59846371 4.44488059 -0.8015341 2.22167825 0 0 Z " fill="#1CADB3" transform="translate(703,596)"/>
<path d="M0 0 C5.61 0 11.22 0 17 0 C15.875 7.875 15.875 7.875 13.93359375 11.40234375 C13.3293457 12.51899414 13.3293457 12.51899414 12.71289062 13.65820312 C12.29201172 14.41037109 11.87113281 15.16253906 11.4375 15.9375 C11.01275391 16.71673828 10.58800781 17.49597656 10.15039062 18.29882812 C9.10987146 20.20449805 8.05625582 22.10300722 7 24 C10.3 24 13.6 24 17 24 C17 25.65 17 27.3 17 29 C11.39 29 5.78 29 0 29 C1.125 21.125 1.125 21.125 3.28515625 17.37890625 C3.73310547 16.58935547 4.18105469 15.79980469 4.64257812 14.98632812 C5.11115234 14.18646484 5.57972656 13.38660156 6.0625 12.5625 C6.53494141 11.73556641 7.00738281 10.90863281 7.49414062 10.05664062 C8.65275044 8.03199922 9.82501134 6.01518018 11 4 C7.37 4 3.74 4 0 4 C0 2.68 0 1.36 0 0 Z " fill="#1CACB1" transform="translate(199,596)"/>
<path d="M0 0 C2.29296875 -0.2734375 2.29296875 -0.2734375 5 0 C6.80078125 1.8984375 6.80078125 1.8984375 8.3125 4.375 C8.82425781 5.18710937 9.33601562 5.99921875 9.86328125 6.8359375 C11 9 11 9 11 11 C11.66 11 12.32 11 13 11 C13.268125 10.113125 13.53625 9.22625 13.8125 8.3125 C15.86157518 2.59665871 15.86157518 2.59665871 18 0 C21.109375 -0.1328125 21.109375 -0.1328125 24 0 C23.06506561 1.89709988 22.12693704 3.79262578 21.1875 5.6875 C20.66542969 6.74324219 20.14335937 7.79898438 19.60546875 8.88671875 C18 12 18 12 16.34375 14.5 C14.71213489 17.53556299 14.50075068 19.88633757 14.3125 23.3125 C14.21388672 24.91544922 14.21388672 24.91544922 14.11328125 26.55078125 C14.07589844 27.35902344 14.03851563 28.16726563 14 29 C12.35 29 10.7 29 9 29 C9.020625 28.22398437 9.04125 27.44796875 9.0625 26.6484375 C8.89162844 17.69903979 6.39489802 12.14457346 1.71484375 4.80078125 C0 2 0 2 0 0 Z " fill="#1CB5BB" transform="translate(228,596)"/>
<path d="M0 0 C3.3125 1.0625 3.3125 1.0625 4.5 3.0625 C4.768125 3.7225 5.03625 4.3825 5.3125 5.0625 C7.29295559 5.72429847 7.29295559 5.72429847 9.3125 6.0625 C11.3125 8.0625 11.3125 8.0625 11.3125 10.0625 C7.3525 10.0625 3.3925 10.0625 -0.6875 10.0625 C-0.6875 11.3825 -0.6875 12.7025 -0.6875 14.0625 C1.6225 14.0625 3.9325 14.0625 6.3125 14.0625 C4.4375 18.9375 4.4375 18.9375 3.3125 20.0625 C-3.60714889 20.62968433 -3.60714889 20.62968433 -7.1875 18.75 C-9.64382485 14.34908464 -9.51335172 9.9669001 -8.6875 5.0625 C-6.04845469 0.90400436 -4.93752749 0.08368691 0 0 Z " fill="#131E21" transform="translate(632.6875,599.9375)"/>
<path d="M0 0 C4.62 0 9.24 0 14 0 C14.66 1.32 15.32 2.64 16 4 C15.01 4.495 15.01 4.495 14 5 C14.33 5.33 14.66 5.66 15 6 C15.25 8.9375 15.25 8.9375 15 12 C11.3558226 14.4294516 9.28758728 14.16179575 5 14 C5 10.7 5 7.4 5 4 C4.34 4 3.68 4 3 4 C3 11.59 3 19.18 3 27 C2.01 27.33 1.02 27.66 0 28 C0 18.76 0 9.52 0 0 Z " fill="#1BAFB4" transform="translate(863,596)"/>
<path d="M0 0 C1.65 0 3.3 0 5 0 C5 7.92 5 15.84 5 24 C8.3 24 11.6 24 15 24 C15 25.65 15 27.3 15 29 C10.05 29 5.1 29 0 29 C0 19.43 0 9.86 0 0 Z " fill="#1BA8AE" transform="translate(133,596)"/>
<path d="M0 0 C14 0 14 0 17.875 2.0625 C20 5 20 5 20.6875 8.4375 C19.80259236 13.0229305 18.22450256 14.69488488 15 18 C14.34 17.34 13.68 16.68 13 16 C13.33 15.34 13.66 14.68 14 14 C13.01 13.67 12.02 13.34 11 13 C11.99 12.34 12.98 11.68 14 11 C13.62095792 7.70924004 13.62095792 7.70924004 12 5 C10.65252916 4.76924918 9.29622435 4.58846937 7.9375 4.4375 C6.638125 4.293125 5.33875 4.14875 4 4 C4 7.3 4 10.6 4 14 C3.67 14 3.34 14 3 14 C2.67 11.69 2.34 9.38 2 7 C1.67 13.6 1.34 20.2 1 27 C1.66 27 2.32 27 3 27 C3 24.03 3 21.06 3 18 C3.33 18 3.66 18 4 18 C4.33 21.3 4.66 24.6 5 28 C3.35 28.33 1.7 28.66 0 29 C0 19.43 0 9.86 0 0 Z " fill="#1BA3AA" transform="translate(543,596)"/>
<path d="M0 0 C0.99 0 1.98 0 3 0 C2.835 1.11375 2.67 2.2275 2.5 3.375 C1.9544542 6.72032033 1.9544542 6.72032033 2 9 C2.99 6.36 3.98 3.72 5 1 C9.14383603 5.93313813 11 10.55575399 11 17 C7.37 17.33 3.74 17.66 0 18 C-0.99 20.475 -0.99 20.475 -2 23 C-3.65 23 -5.3 23 -7 23 C-4.97810834 15.21878058 -2.61369593 7.60227292 0 0 Z " fill="#19999E" transform="translate(167,602)"/>
<path d="M0 0 C14 0 14 0 19 3 C20.10647808 5.21295616 20.19588368 6.54672699 20.25 9 C20.27578125 9.70125 20.3015625 10.4025 20.328125 11.125 C20.21984375 11.74375 20.1115625 12.3625 20 13 C19.01 13.66 18.02 14.32 17 15 C17.29296875 13.046875 17.5859375 11.09375 17.87890625 9.140625 C18.12547949 6.66058453 18.12547949 6.66058453 17 3 C9.575 2.01 9.575 2.01 2 1 C2.33 4.96 2.66 8.92 3 13 C3.33 10.03 3.66 7.06 4 4 C4.33 4 4.66 4 5 4 C5 7.3 5 10.6 5 14 C7.31 14 9.62 14 12 14 C11.01 14.66 10.02 15.32 9 16 C10.32 17.32 11.64 18.64 13 20 C12.67 20.66 12.34 21.32 12 22 C11.34 21.01 10.68 20.02 10 19 C8.35 18.67 6.7 18.34 5 18 C5 21.63 5 25.26 5 29 C3.35 29 1.7 29 0 29 C0 19.43 0 9.86 0 0 Z " fill="#1BB1B6" transform="translate(659,596)"/>
<path d="M0 0 C1.65 0 3.3 0 5 0 C5 9.57 5 19.14 5 29 C3.35 29 1.7 29 0 29 C0 19.43 0 9.86 0 0 Z " fill="#1BAAB0" transform="translate(395,596)"/>
<path d="M0 0 C4.95 0 9.9 0 15 0 C15.33 1.32 15.66 2.64 16 4 C12.04 4 8.08 4 4 4 C4 6.31 4 8.62 4 11 C7.96 11 11.92 11 16 11 C15.67 12.65 15.34 14.3 15 16 C11.37 16 7.74 16 4 16 C4 18.31 4 20.62 4 23 C3.67 23 3.34 23 3 23 C2.855625 21.948125 2.71125 20.89625 2.5625 19.8125 C2.12473034 16.84539451 1.62195134 13.93205634 1 11 C1.66 11 2.32 11 3 11 C2.67 9.68 2.34 8.36 2 7 C1.01 7.495 1.01 7.495 0 8 C0 5.36 0 2.72 0 0 Z " fill="#198A8F" transform="translate(324,597)"/>
<path d="M0 0 C13 0 13 0 18 3 C20.36086122 6.54129184 20.57269578 7.82750218 20 12 C17.57062147 16.37288136 17.57062147 16.37288136 15 18 C11.60701142 18.49729298 8.4024474 18.35676148 5 18 C5 17.67 5 17.34 5 17 C8.96 16.505 8.96 16.505 13 16 C13.33 13.03 13.66 10.06 14 7 C10.55549263 4.70366176 8.06187717 4.45983515 4 4 C4 7.3 4 10.6 4 14 C3.67 14 3.34 14 3 14 C3 10.37 3 6.74 3 3 C4.588125 2.938125 6.17625 2.87625 7.8125 2.8125 C8.70582031 2.77769531 9.59914063 2.74289062 10.51953125 2.70703125 C13 3 13 3 14.78125 4.28125 C16.6853152 6.96647016 16.69684443 9.78655095 17 13 C17.44415293 8.45489167 17.44415293 8.45489167 15.90625 4.34375 C13.16029671 2.40807801 10.62171431 2.23843848 7.3125 1.8125 C5.229375 1.544375 3.14625 1.27625 1 1 C1 9.58 1 18.16 1 27 C1.66 27 2.32 27 3 27 C3 24.36 3 21.72 3 19 C3.33 19 3.66 19 4 19 C4 21.97 4 24.94 4 28 C2.68 28 1.36 28 0 28 C0 18.76 0 9.52 0 0 Z " fill="#1BBCC2" transform="translate(509,596)"/>
<path d="M0 0 C2.19702465 0.37879735 3.83875922 0.90210381 5.75 2.0625 C7.71104274 5.10211625 7.72149304 8.49156325 7 12 C5.890625 13.765625 5.890625 13.765625 4 15 C0.8984375 15.109375 0.8984375 15.109375 -2.625 14.75 C-3.79289063 14.64171875 -4.96078125 14.5334375 -6.1640625 14.421875 C-9 14 -9 14 -10 13 C-10.23363881 11.15108054 -10.41303635 9.29511969 -10.5625 7.4375 C-10.64628906 6.42558594 -10.73007812 5.41367187 -10.81640625 4.37109375 C-10.87699219 3.58863281 -10.93757812 2.80617188 -11 2 C-7.7169902 0.3584951 -4.57454967 1.48111376 -1 2 C-1 2.33 -1 2.66 -1 3 C-3.31 3 -5.62 3 -8 3 C-8 6.3 -8 9.6 -8 13 C-5.03 12.34 -2.06 11.68 1 11 C1.20970559 6.85906302 1.20970559 6.85906302 0 3 C0.66 2.67 1.32 2.34 2 2 C1.34 1.34 0.68 0.68 0 0 Z " fill="#1AB2B7" transform="translate(876,597)"/>
<path d="M0 0 C1.98 0 3.96 0 6 0 C7.36663387 2.43123269 8.7183867 4.86886163 10.0625 7.3125 C10.45244141 8.00279297 10.84238281 8.69308594 11.24414062 9.40429688 C12.24037483 11.22925688 13.12752842 13.11273877 14 15 C13.67 15.99 13.34 16.98 13 18 C12.46890625 16.85660156 11.9378125 15.71320312 11.390625 14.53515625 C10.67782986 13.04391378 9.9642471 11.55304759 9.25 10.0625 C8.90195312 9.30775391 8.55390625 8.55300781 8.1953125 7.77539062 C7.67324219 6.69741211 7.67324219 6.69741211 7.140625 5.59765625 C6.82641602 4.93258057 6.51220703 4.26750488 6.18847656 3.58227539 C4.90726643 1.53054032 4.90726643 1.53054032 1 1 C1.33 4.63 1.66 8.26 2 12 C2.33 10.35 2.66 8.7 3 7 C3.33 7 3.66 7 4 7 C4 14.26 4 21.52 4 29 C2.68 29 1.36 29 0 29 C0 19.43 0 9.86 0 0 Z " fill="#1BC7CD" transform="translate(782,596)"/>
<path d="M0 0 C2 2 2 2 2 5 C5.3 5.33 8.6 5.66 12 6 C12 7.65 12 9.3 12 11 C6.39 11 0.78 11 -5 11 C-4 4 -4 4 0 0 Z " fill="#1DAFB3" transform="translate(204,614)"/>
<path d="M0 0 C1.32 0.33 2.64 0.66 4 1 C4 9.58 4 18.16 4 27 C2.68 27 1.36 27 0 27 C-1.51953125 25.3203125 -1.51953125 25.3203125 -2.8125 23.125 C-3.25207031 22.40570312 -3.69164062 21.68640625 -4.14453125 20.9453125 C-4.42683594 20.30335938 -4.70914062 19.66140625 -5 19 C-4.67 18.34 -4.34 17.68 -4 17 C-3.01 17.99 -2.02 18.98 -1 20 C-0.67 13.4 -0.34 6.8 0 0 Z " fill="#18888E" transform="translate(374,596)"/>
<path d="M0 0 C0.66 0 1.32 0 2 0 C2.66 1.32 3.32 2.64 4 4 C4.33 2.68 4.66 1.36 5 0 C5.45375 1.0725 5.9075 2.145 6.375 3.25 C8.00951287 7.05618958 9.69569751 10.54354626 12 14 C12.38499891 15.65549531 12.72793135 17.3222433 13 19 C11.68 19.33 10.36 19.66 9 20 C8.01 16.37 7.02 12.74 6 9 C5.67 9.66 5.34 10.32 5 11 C2.36 11 -0.28 11 -3 11 C-2.01 7.37 -1.02 3.74 0 0 Z " fill="#1B9CA3" transform="translate(705,603)"/>
<path d="M0 0 C0.33 0.66 0.66 1.32 1 2 C0.40832031 1.96519531 -0.18335938 1.93039062 -0.79296875 1.89453125 C-5.69023752 1.72676185 -9.08879412 1.68140107 -13 5 C-15.08307022 8.54808663 -15.70394284 12.07240248 -16.4375 16.07421875 C-16.623125 16.70972656 -16.80875 17.34523438 -17 18 C-17.66 18.33 -18.32 18.66 -19 19 C-20.75728839 9.50682251 -20.75728839 9.50682251 -18.4375 5.125 C-12.887252 -1.99070256 -8.34937234 -3.11332528 0 0 Z " fill="#1AA0A7" transform="translate(596,598)"/>
<path d="M0 0 C2.31 0 4.62 0 7 0 C7 9.57 7 19.14 7 29 C5.35 29 3.7 29 2 29 C2 22.4 2 15.8 2 9 C2.33 9 2.66 9 3 9 C3 14.94 3 20.88 3 27 C3.66 27 4.32 27 5 27 C5 18.42 5 9.84 5 1 C3.68 1 2.36 1 1 1 C0.34 2.98 -0.32 4.96 -1 7 C-1.66 6.67 -2.32 6.34 -3 6 C-2.01 4.02 -1.02 2.04 0 0 Z " fill="#1BB5BB" transform="translate(806,596)"/>
<path d="M0 0 C6.625 -0.25 6.625 -0.25 10 2 C10.375 5 10.375 5 10 8 C6.3558226 10.4294516 4.28758728 10.16179575 0 10 C0 6.7 0 3.4 0 0 Z " fill="#111617" transform="translate(868,600)"/>
<path d="M0 0 C6.625 -0.25 6.625 -0.25 10 2 C10.375 5 10.375 5 10 8 C6.3558226 10.4294516 4.28758728 10.16179575 0 10 C0 6.7 0 3.4 0 0 Z " fill="#141D1F" transform="translate(664,600)"/>
<path d="M0 0 C2.31 0 4.62 0 7 0 C7 9.57 7 19.14 7 29 C5.35 29 3.7 29 2 29 C2 22.07 2 15.14 2 8 C2.33 8 2.66 8 3 8 C3 14.27 3 20.54 3 27 C3.66 27 4.32 27 5 27 C5 18.42 5 9.84 5 1 C3.35 1.33 1.7 1.66 0 2 C0 1.34 0 0.68 0 0 Z " fill="#1BB2B7" transform="translate(758,596)"/>
<path d="M0 0 C1.32 0 2.64 0 4 0 C4.11638036 3.24969769 4.18730581 6.4988583 4.25 9.75 C4.30027344 11.13058594 4.30027344 11.13058594 4.3515625 12.5390625 C4.37089844 13.87324219 4.37089844 13.87324219 4.390625 15.234375 C4.41157227 16.05131836 4.43251953 16.86826172 4.45410156 17.70996094 C4 20 4 20 0 24 C0 16.08 0 8.16 0 0 Z " fill="#1BAFB5" transform="translate(417,596)"/>
<path d="M0 0 C6.39075249 -0.36174071 6.39075249 -0.36174071 9 1.1875 C10 3 10 3 9.875 5.5625 C9 8 9 8 6 10 C2.8125 10.125 2.8125 10.125 0 10 C0 6.7 0 3.4 0 0 Z " fill="#14191C" transform="translate(548,600)"/>
<path d="M0 0 C2.32421875 0.15234375 2.32421875 0.15234375 5 1 C6.58203125 3.50390625 6.58203125 3.50390625 7.8125 6.5625 C8.23144531 7.57441406 8.65039062 8.58632813 9.08203125 9.62890625 C9.38496094 10.41136719 9.68789063 11.19382812 10 12 C9.34 12 8.68 12 8 12 C7.01 10.35 6.02 8.7 5 7 C4.67 13.93 4.34 20.86 4 28 C3.67 28 3.34 28 3 28 C2.67 25.69 2.34 23.38 2 21 C1.67 21 1.34 21 1 21 C0.14626761 13.97195301 -0.12109311 7.07721931 0 0 Z " fill="#1A8E94" transform="translate(783,597)"/>
<path d="M0 0 C3.33571429 1.11190476 3.58417079 1.46320673 5.1875 4.375 C5.70376953 5.28378906 5.70376953 5.28378906 6.23046875 6.2109375 C7 8 7 8 7 11 C7.66 11 8.32 11 9 11 C9 12.32 9 13.64 9 15 C9.99 16.485 9.99 16.485 11 18 C11.25760279 20.69452521 11.08900053 23.28548375 11 26 C10.01 26.33 9.02 26.66 8 27 C9.32 27.33 10.64 27.66 12 28 C10.35 28 8.7 28 7 28 C6.97421875 27.14277344 6.9484375 26.28554688 6.921875 25.40234375 C6.56836954 18.27599513 5.84524919 13.94265784 2 8 C1.14554812 5.34695052 0.57539554 2.73312883 0 0 Z " fill="#1B9CA2" transform="translate(230,597)"/>
<path d="M0 0 C1.98541731 2.97812597 2.98825276 5.49843969 4.125 8.875 C4.47820313 9.90367187 4.83140625 10.93234375 5.1953125 11.9921875 C5.95376887 14.82719431 6.16126892 17.08640824 6 20 C3.65085508 17.65085508 3.26859643 16.04320554 2.375 12.875 C2.11460937 11.96492187 1.85421875 11.05484375 1.5859375 10.1171875 C1.39257812 9.41851563 1.19921875 8.71984375 1 8 C1 9.98 1 11.96 1 14 C0.34 13.67 -0.32 13.34 -1 13 C-1.625 9.9375 -1.625 9.9375 -2 7 C-2.99 7 -3.98 7 -5 7 C-5.33 7.66 -5.66 8.32 -6 9 C-7 7 -7 7 -6.0625 3.875 C-5.5365625 2.451875 -5.5365625 2.451875 -5 1 C-3.35 0.67 -1.7 0.34 0 0 Z " fill="#1AABB0" transform="translate(709,596)"/>
<path d="M0 0 C6.0546875 -0.1953125 6.0546875 -0.1953125 8 0 C8.66 0.66 9.32 1.32 10 2 C9.67028521 5.29714793 9.3773161 6.6226839 7 9 C3.375 9.125 3.375 9.125 0 9 C0 6.03 0 3.06 0 0 Z " fill="#130F11" transform="translate(514,601)"/>
<path d="M0 0 C0 3.63 0 7.26 0 11 C2.31 11 4.62 11 7 11 C6.34 11.66 5.68 12.32 5 13 C3.35 13 1.7 13 0 13 C0 16.3 0 19.6 0 23 C-1.32 23 -2.64 23 -4 23 C-4.08706892 19.72933434 -4.14041241 16.45896635 -4.1875 13.1875 C-4.21263672 12.25873047 -4.23777344 11.32996094 -4.26367188 10.37304688 C-4.27333984 9.48037109 -4.28300781 8.58769531 -4.29296875 7.66796875 C-4.3086792 6.84578857 -4.32438965 6.0236084 -4.34057617 5.17651367 C-3.97439979 2.83639719 -2.79303195 0 0 0 Z " fill="#1A99A0" transform="translate(548,600)"/>
<path d="M0 0 C0.625 1.75 0.625 1.75 1 4 C0.34 5.32 -0.32 6.64 -1 8 C3.29 8.66 7.58 9.32 12 10 C12 10.33 12 10.66 12 11 C8.37 11 4.74 11 1 11 C0.34 13.64 -0.32 16.28 -1 19 C-2.65 19 -4.3 19 -6 19 C-4.70024676 12.28460827 -2.70071112 6.27980887 0 0 Z " fill="#1BA8AE" transform="translate(700,606)"/>
<path d="M0 0 C0.66 0.66 1.32 1.32 2 2 C1.625 4.125 1.625 4.125 1 6 C-1.96175123 5.38722388 -3.38058783 4.74627478 -6 3 C-8.19459867 2.93689278 -8.19459867 2.93689278 -10.5 3.3125 C-11.66015625 3.46138672 -11.66015625 3.46138672 -12.84375 3.61328125 C-15.17239621 3.97758249 -15.17239621 3.97758249 -18 5 C-17.07011275 2.67528188 -16.3827544 1.26934569 -14.3125 -0.1875 C-9.12947344 -2.00856339 -4.93518169 -2.67909863 0 0 Z " fill="#1BACB3" transform="translate(640,598)"/>
<path d="M0 0 C0.33 0 0.66 0 1 0 C1.33 7.26 1.66 14.52 2 22 C3.98 22.66 5.96 23.32 8 24 C8.33 24.33 8.66 24.66 9 25 C10.32594105 25.36162029 11.65938457 25.69728039 13 26 C12 27 12 27 8.4375 27.0625 C7.303125 27.041875 6.16875 27.02125 5 27 C5 27.66 5 28.32 5 29 C1.31245243 28.50168276 -0.60490662 27.89932357 -3 25 C-2.68289063 24.38769531 -2.36578125 23.77539062 -2.0390625 23.14453125 C-0.56599636 18.68656794 -0.53334142 14.355273 -0.375 9.6875 C-0.33632813 8.75615234 -0.29765625 7.82480469 -0.2578125 6.86523438 C-0.16393687 4.57701593 -0.07825491 2.28879705 0 0 Z " fill="#1A989E" transform="translate(421,596)"/>
<path d="M0 0 C2.5 1.4375 2.5 1.4375 5 4 C5.95385179 8.48821335 5.30848586 12.19206085 3.6875 16.4375 C2 19 2 19 -1 21 C-1.6875 17.6875 -1.6875 17.6875 -2 14 C-1.505 13.54625 -1.01 13.0925 -0.5 12.625 C1.29512229 11.03774923 1.29512229 11.03774923 1.07421875 8.30078125 C0.94660156 7.31464844 0.81898438 6.32851563 0.6875 5.3125 C0.56761719 4.31863281 0.44773437 3.32476563 0.32421875 2.30078125 C0.21722656 1.54152344 0.11023438 0.78226563 0 0 Z " fill="#1BA1A8" transform="translate(600,602)"/>
<path d="M0 0 C3.3 0 6.6 0 10 0 C11.09763864 3.39270125 11.05901808 4.83847682 9.8125 8.25 C8 11 8 11 6.21484375 11.66796875 C3.69334389 12.04597137 1.29909115 12.09604067 -1.25 12.0625 C-2.14203125 12.05347656 -3.0340625 12.04445313 -3.953125 12.03515625 C-4.62859375 12.02355469 -5.3040625 12.01195312 -6 12 C-6 11.67 -6 11.34 -6 11 C-5.31292969 10.93683594 -4.62585938 10.87367188 -3.91796875 10.80859375 C1.32960579 10.30595933 1.32960579 10.30595933 5.33203125 7.30859375 C6.25807418 5.17452373 6.25807418 5.17452373 7 2 C4.69 2 2.38 2 0 2 C0 1.34 0 0.68 0 0 Z " fill="#1B9CA2" transform="translate(633,611)"/>
<path d="M0 0 C4.95 0 9.9 0 15 0 C15.33 1.32 15.66 2.64 16 4 C12.04 4 8.08 4 4 4 C4 6.31 4 8.62 4 11 C3.34 9.68 2.68 8.36 2 7 C1.01 7.495 1.01 7.495 0 8 C0 5.36 0 2.72 0 0 Z " fill="#1A888E" transform="translate(324,597)"/>
<path d="M0 0 C0.33 0 0.66 0 1 0 C1 3.3 1 6.6 1 10 C3.31 10 5.62 10 8 10 C7.01 10.66 6.02 11.32 5 12 C6.32 13.32 7.64 14.64 9 16 C8.67 16.66 8.34 17.32 8 18 C7.34 17.01 6.68 16.02 6 15 C4.35 14.67 2.7 14.34 1 14 C1 17.63 1 21.26 1 25 C-0.65 25 -2.3 25 -4 25 C-4 24.34 -4 23.68 -4 23 C-2.68 23 -1.36 23 0 23 C-0.14148989 21.3954444 -0.28835686 19.79136233 -0.4375 18.1875 C-0.51871094 17.29417969 -0.59992187 16.40085937 -0.68359375 15.48046875 C-0.93489767 12.87256441 -0.93489767 12.87256441 -2 10 C-1.67 9.67 -1.34 9.34 -1 9 C-0.76807135 7.48530552 -0.58784762 5.96245438 -0.4375 4.4375 C-0.35371094 3.61121094 -0.26992188 2.78492188 -0.18359375 1.93359375 C-0.12300781 1.29550781 -0.06242188 0.65742187 0 0 Z " fill="#1CB8BF" transform="translate(663,600)"/>
<path d="M0 0 C1.98 0 3.96 0 6 0 C4.02 3.96 2.04 7.92 0 12 C-0.66 12 -1.32 12 -2 12 C-3.62514468 13.45833358 -3.62514468 13.45833358 -5 15 C-4.54901762 13.06077578 -4.08894441 11.12366406 -3.625 9.1875 C-3.24214844 7.56908203 -3.24214844 7.56908203 -2.8515625 5.91796875 C-2 3 -2 3 0 0 Z " fill="#1AA6AD" transform="translate(246,596)"/>
<path d="M0 0 C2.87137415 2.87137415 4.95917144 5.50143675 7 9 C6.67 9.99 6.34 10.98 6 12 C5.01 10.35 4.02 8.7 3 7 C2.93941406 7.91523437 2.87882812 8.83046875 2.81640625 9.7734375 C2.73261719 10.96195313 2.64882813 12.15046875 2.5625 13.375 C2.48128906 14.55835938 2.40007812 15.74171875 2.31640625 16.9609375 C2 20 2 20 1 22 C-0.98 22 -2.96 22 -5 22 C-5 21.67 -5 21.34 -5 21 C-3.35 21 -1.7 21 0 21 C0 14.07 0 7.14 0 0 Z " fill="#130C0D" transform="translate(360,604)"/>
<path d="M0 0 C3.96 0 7.92 0 12 0 C12 0.33 12 0.66 12 1 C8.37 1 4.74 1 1 1 C1 9.58 1 18.16 1 27 C1.66 27 2.32 27 3 27 C3 24.03 3 21.06 3 18 C3.33 18 3.66 18 4 18 C4.33 21.3 4.66 24.6 5 28 C3.35 28.33 1.7 28.66 0 29 C0 19.43 0 9.86 0 0 Z " fill="#1ECDD1" transform="translate(543,596)"/>
<path d="M0 0 C1.52519276 0.08937803 3.04681929 0.24537146 4.5625 0.4375 C5.80193359 0.59025391 5.80193359 0.59025391 7.06640625 0.74609375 C7.70449219 0.82988281 8.34257813 0.91367187 9 1 C9 1.33 9 1.66 9 2 C6.69 2 4.38 2 2 2 C2 5.3 2 8.6 2 12 C3.588125 11.79375 5.17625 11.5875 6.8125 11.375 C11.625 10.75 11.625 10.75 15 13 C11.76462662 14.01058283 9.17014394 13.99200982 5.8125 13.625 C4.93207031 13.53476562 4.05164063 13.44453125 3.14453125 13.3515625 C1 13 1 13 0 12 C-0.26013181 10.1732966 -0.45923072 8.33767093 -0.625 6.5 C-0.72039063 5.4996875 -0.81578125 4.499375 -0.9140625 3.46875 C-0.95660156 2.24671875 -0.95660156 2.24671875 -1 1 C-0.67 0.67 -0.34 0.34 0 0 Z " fill="#1CB6BD" transform="translate(866,598)"/>
<path d="M0 0 C0.33 0 0.66 0 1 0 C1 2.64 1 5.28 1 8 C5.29 8 9.58 8 14 8 C14 9.32 14 10.64 14 12 C9.71 12 5.42 12 1 12 C0.03929566 9.11788698 -0.10581883 7.30149956 -0.0625 4.3125 C-0.05347656 3.50425781 -0.04445313 2.69601562 -0.03515625 1.86328125 C-0.02355469 1.24839844 -0.01195312 0.63351562 0 0 Z " fill="#1CB6BC" transform="translate(833,600)"/>
<path d="M0 0 C0.66 0 1.32 0 2 0 C2.99 3.63 3.98 7.26 5 11 C2.36 11 -0.28 11 -3 11 C-2.01 7.37 -1.02 3.74 0 0 Z " fill="#131213" transform="translate(705,603)"/>
<path d="M0 0 C3.14958831 3.42346555 3.56179109 6.44262737 4 11 C1.69 11 -0.62 11 -3 11 C-2.69078116 9.54096742 -2.37751201 8.08279278 -2.0625 6.625 C-1.88847656 5.81289063 -1.71445313 5.00078125 -1.53515625 4.1640625 C-1 2 -1 2 0 0 Z " fill="#111213" transform="translate(172,603)"/>
<path d="M0 0 C0.33 0 0.66 0 1 0 C1 7.26 1 14.52 1 22 C-0.32 21.67 -1.64 21.34 -3 21 C-2.67 15.72 -2.34 10.44 -2 5 C-1.67 5 -1.34 5 -1 5 C-0.67 3.35 -0.34 1.7 0 0 Z " fill="#1BAFB5" transform="translate(785,603)"/>
<path d="M0 0 C3 0.1875 3 0.1875 6 1 C6.66 1.99 7.32 2.98 8 4 C7.01 4 6.02 4 5 4 C4.67 5.32 4.34 6.64 4 8 C1.5625 7.25 1.5625 7.25 -1 6 C-1.9375 4 -1.9375 4 -2 2 C-1.34 1.34 -0.68 0.68 0 0 Z " fill="#151D1F" transform="translate(461,600)"/>
<path d="M0 0 C1.60875 -0.04125 3.2175 -0.0825 4.875 -0.125 C5.77992188 -0.14820313 6.68484375 -0.17140625 7.6171875 -0.1953125 C10 0 10 0 12 2 C7.545 2.495 7.545 2.495 3 3 C2.87625 4.464375 2.7525 5.92875 2.625 7.4375 C2.4140625 9.93359375 2.4140625 9.93359375 2 12 C1.01 12.495 1.01 12.495 0 13 C0 8.71 0 4.42 0 0 Z " fill="#1B99A0" transform="translate(661,597)"/>
<path d="M0 0 C2.5132982 2.5132982 2 3.62447307 2 7 C4.64 7.33 7.28 7.66 10 8 C10 8.33 10 8.66 10 9 C5.38 9 0.76 9 -4 9 C-3.67 6.69 -3.34 4.38 -3 2 C-2.34 2 -1.68 2 -1 2 C-0.67 1.34 -0.34 0.68 0 0 Z " fill="#1A979C" transform="translate(204,614)"/>
<path d="M0 0 C2 1 2 1 3.125 4.3125 C4 8 4 8 4 12 C5.32 11.67 6.64 11.34 8 11 C8 11.99 8 12.98 8 14 C6.35 13.67 4.7 13.34 3 13 C2.67 11.02 2.34 9.04 2 7 C-1.63 7 -5.26 7 -9 7 C-9 6.67 -9 6.34 -9 6 C-4.545 5.505 -4.545 5.505 0 5 C-0.33 4.34 -0.66 3.68 -1 3 C-0.67 2.01 -0.34 1.02 0 0 Z " fill="#1BB7BD" transform="translate(710,611)"/>
<path d="M0 0 C1.98 0 3.96 0 6 0 C6.38218767 1.65614657 6.71395102 3.32457024 7 5 C6 6 6 6 2.9375 6.0625 C1.4834375 6.0315625 1.4834375 6.0315625 0 6 C0 4.02 0 2.04 0 0 Z " fill="#141F22" transform="translate(515,602)"/>
<path d="M0 0 C0.66 0.66 1.32 1.32 2 2 C1.9765625 4.3828125 1.9765625 4.3828125 1.625 7.125 C1.51414063 8.03507813 1.40328125 8.94515625 1.2890625 9.8828125 C1.19367188 10.58148437 1.09828125 11.28015625 1 12 C-0.65 12 -2.3 12 -4 12 C-3.52494322 10.18641846 -3.04483958 8.37415821 -2.5625 6.5625 C-2.29566406 5.55316406 -2.02882812 4.54382813 -1.75390625 3.50390625 C-1 1 -1 1 0 0 Z " fill="#1AA1A7" transform="translate(164,613)"/>
<path d="M0 0 C3.5 0.25 3.5 0.25 5.5 2.25 C6.1875 4.25 6.1875 4.25 6.5 6.25 C6.17 6.91 5.84 7.57 5.5 8.25 C4.51 7.92 3.52 7.59 2.5 7.25 C2.231875 6.59 1.96375 5.93 1.6875 5.25 C1.0996875 4.26 1.0996875 4.26 0.5 3.25 C-2.55908413 2.43415432 -2.55908413 2.43415432 -5.5 2.25 C-3.5 0.25 -3.5 0.25 0 0 Z " fill="#1A9AA1" transform="translate(873.5,610.75)"/>
<path d="M0 0 C4.29 0 8.58 0 13 0 C13 1.32 13 2.64 13 4 C9.04 4 5.08 4 1 4 C0.67 2.68 0.34 1.36 0 0 Z " fill="#1EB5BA" transform="translate(327,608)"/>
<path d="M0 0 C0.99 0.495 0.99 0.495 2 1 C3.87056791 1.2275015 5.74685958 1.40962811 7.625 1.5625 C8.62789062 1.64628906 9.63078125 1.73007812 10.6640625 1.81640625 C11.43492187 1.87699219 12.20578125 1.93757812 13 2 C13.33 2.99 13.66 3.98 14 5 C10.37 5 6.74 5 3 5 C3 7.31 3 9.62 3 12 C2.67 12 2.34 12 2 12 C2 9.69 2 7.38 2 5 C1.34 5 0.68 5 0 5 C0 3.35 0 1.7 0 0 Z " fill="#198389" transform="translate(832,608)"/>
<path d="M0 0 C6.26219918 1.7078725 10.36963679 6.63334373 13.9375 11.8125 C15 14 15 14 15 16 C15.99 16.33 16.98 16.66 18 17 C17.67 17.66 17.34 18.32 17 19 C16.34 19 15.68 19 15 19 C14.08514127 17.53622604 13.2441948 16.02605511 12.4375 14.5 C9.5655572 9.49013452 6.19903895 6.13848574 1.7578125 2.49609375 C1.17773438 2.00238281 0.59765625 1.50867188 0 1 C0 0.67 0 0.34 0 0 Z " fill="#26ADB1" transform="translate(485,467)"/>
<path d="M0 0 C2.2421875 -0.3984375 2.2421875 -0.3984375 4.875 -0.375 C5.73867188 -0.38273438 6.60234375 -0.39046875 7.4921875 -0.3984375 C10.49297923 0.0783238 11.8852854 0.8262701 14 3 C14 4.32 14 5.64 14 7 C11.5625 6.625 11.5625 6.625 9 6 C8.67 5.34 8.34 4.68 8 4 C9.32 4.33 10.64 4.66 12 5 C12 4.34 12 3.68 12 3 C10.41773035 2.80372609 8.83410729 2.61834462 7.25 2.4375 C6.36828125 2.33308594 5.4865625 2.22867188 4.578125 2.12109375 C2.11567549 2.00543324 0.33461936 2.26361305 -2 3 C-1.34 2.01 -0.68 1.02 0 0 Z " fill="#1CB3BA" transform="translate(458,596)"/>
<path d="M0 0 C0.25 7.625 0.25 7.625 -2 11 C-2.66 10.67 -3.32 10.34 -4 10 C-3.67 9.67 -3.34 9.34 -3 9 C-2.95919217 7.00041636 -2.95745644 4.99954746 -3 3 C-7.455 2.01 -7.455 2.01 -12 1 C-12 0.67 -12 0.34 -12 0 C-10.56359829 -0.19573608 -9.12580496 -0.38127816 -7.6875 -0.5625 C-6.88699219 -0.66691406 -6.08648438 -0.77132812 -5.26171875 -0.87890625 C-3 -1 -3 -1 0 0 Z " fill="#1CAFB5" transform="translate(676,599)"/>
<path d="M0 0 C2 3 2 3 2 5 C1.01 5.33 0.02 5.66 -1 6 C-1.33 6.33 -1.66 6.66 -2 7 C-2.99 7 -3.98 7 -5 7 C-5.33 7.66 -5.66 8.32 -6 9 C-7 7 -7 7 -6.0625 3.875 C-5.5365625 2.451875 -5.5365625 2.451875 -5 1 C-3.35 0.67 -1.7 0.34 0 0 Z " fill="#1B98A0" transform="translate(709,596)"/>
<path d="M0 0 C0.99 0.33 1.98 0.66 3 1 C3.73046875 2.84765625 3.73046875 2.84765625 4.1875 5.0625 C4.34605469 5.79597656 4.50460938 6.52945313 4.66796875 7.28515625 C4.83232422 8.13400391 4.83232422 8.13400391 5 9 C3.68 9 2.36 9 1 9 C0.87625 8.195625 0.7525 7.39125 0.625 6.5625 C0.315625 5.2940625 0.315625 5.2940625 0 4 C-0.66 3.67 -1.32 3.34 -2 3 C-1.34 2.01 -0.68 1.02 0 0 Z " fill="#1AA1A8" transform="translate(176,603)"/>
<path d="M0 0 C3.63 0 7.26 0 11 0 C11.33 1.65 11.66 3.3 12 5 C11.01 5 10.02 5 9 5 C9 4.34 9 3.68 9 3 C3.98464948 3.32960216 3.98464948 3.32960216 0 6 C0.185625 5.38125 0.37125 4.7625 0.5625 4.125 C1.23686176 1.95839822 1.23686176 1.95839822 0 0 Z " fill="#143336" transform="translate(701,618)"/>
<path d="M0 0 C0.66 0 1.32 0 2 0 C1.67 0.99 1.34 1.98 1 3 C2.134375 3.144375 3.26875 3.28875 4.4375 3.4375 C8 4 8 4 9 5 C9.04080783 6.99958364 9.04254356 9.00045254 9 11 C8.67 11 8.34 11 8 11 C8 9.35 8 7.7 8 6 C4.7 6 1.4 6 -2 6 C-1.34 4.02 -0.68 2.04 0 0 Z " fill="#100909" transform="translate(208,614)"/>
<path d="M0 0 C0 3 0 6 0 9 C-3.465 7.02 -3.465 7.02 -7 5 C-6.34 4.67 -5.68 4.34 -5 4 C-5.33 3.01 -5.66 2.02 -6 1 C-3.92446352 0.4465236 -2.15634036 0 0 0 Z " fill="#152022" transform="translate(472,604)"/>
<path d="M0 0 C2.0245738 1.93254772 3.42105792 3.63158688 5 6 C5 6.99 5 7.98 5 9 C3.35 9 1.7 9 0 9 C-1.10844919 5.67465243 -0.84454356 3.37817425 0 0 Z " fill="#1BA2A7" transform="translate(180,616)"/>
<path d="M0 0 C0.7734375 0.02578125 1.546875 0.0515625 2.34375 0.078125 C3.50390625 0.10132813 3.50390625 0.10132813 4.6875 0.125 C6.84375 0.328125 6.84375 0.328125 9.84375 1.328125 C9.84375 1.988125 9.84375 2.648125 9.84375 3.328125 C4.89375 3.328125 -0.05625 3.328125 -5.15625 3.328125 C-2.15625 0.328125 -2.15625 0.328125 0 0 Z " fill="#26A7AC" transform="translate(717.15625,522.671875)"/>
<path d="M0 0 C0.66 0.33 1.32 0.66 2 1 C1.67 1.66 1.34 2.32 1 3 C1.77172237 4.91656024 1.77172237 4.91656024 2.9375 6.9375 C4.4548846 9.68936698 5 10.77788463 5 14 C3.35 13.67 1.7 13.34 0 13 C0.33 12.34 0.66 11.68 1 11 C1.66 11.33 2.32 11.66 3 12 C2.319375 10.948125 1.63875 9.89625 0.9375 8.8125 C-0.6356595 6.09672991 -1.02512513 5.29522026 -0.75 2.0625 C-0.5025 1.381875 -0.255 0.70125 0 0 Z " fill="#1BB3B9" transform="translate(674,611)"/>
<path d="M0 0 C0.66 0.99 1.32 1.98 2 3 C0.68 3.33 -0.64 3.66 -2 4 C-2 3.34 -2 2.68 -2 2 C-5.3 2 -8.6 2 -12 2 C-12 1.34 -12 0.68 -12 0 C-10.37585622 -0.19477739 -8.75063577 -0.38059458 -7.125 -0.5625 C-6.22007812 -0.66691406 -5.31515625 -0.77132812 -4.3828125 -0.87890625 C-2 -1 -2 -1 0 0 Z " fill="#1A9AA0" transform="translate(877,597)"/>
<path d="M0 0 C1 3 1 3 0.00390625 5.48046875 C-0.47175781 6.37378906 -0.94742188 7.26710938 -1.4375 8.1875 C-1.91058594 9.08855469 -2.38367188 9.98960937 -2.87109375 10.91796875 C-3.24363281 11.60503906 -3.61617187 12.29210937 -4 13 C-5.65 12.67 -7.3 12.34 -9 12 C-8.34 11.67 -7.68 11.34 -7 11 C-6.34786708 8.97536745 -6.34786708 8.97536745 -6 7 C-5.67 7.99 -5.34 8.98 -5 10 C-3.35 6.7 -1.7 3.4 0 0 Z " fill="#1CB3BB" transform="translate(757,604)"/>
<path d="M0 0 C1.65 0 3.3 0 5 0 C5.33 0.66 5.66 1.32 6 2 C5.67 2.66 5.34 3.32 5 4 C4.34 4 3.68 4 3 4 C2.87625 4.61875 2.7525 5.2375 2.625 5.875 C2 8 2 8 0 10 C0 6.7 0 3.4 0 0 Z " fill="#14282B" transform="translate(664,614)"/>
<path d="M0 0 C1.65 0.33 3.3 0.66 5 1 C4.67 2.32 4.34 3.64 4 5 C3.1028125 5.061875 3.1028125 5.061875 2.1875 5.125 C-0.35100832 5.87739901 -0.35100832 5.87739901 -1.75 9.0625 C-2.1625 10.031875 -2.575 11.00125 -3 12 C-4.21386936 8.35839192 -3.6674695 7.66834531 -2.0625 4.3125 C-1.49208984 3.10013672 -1.49208984 3.10013672 -0.91015625 1.86328125 C-0.60980469 1.24839844 -0.30945313 0.63351562 0 0 Z " fill="#1BABB3" transform="translate(757,597)"/>
<path d="M0 0 C1.65 1.65 3.3 3.3 5 5 C5.99 4.67 6.98 4.34 8 4 C8 5.98 8 7.96 8 10 C7.01 10 6.02 10 5 10 C3.61328125 8.3203125 3.61328125 8.3203125 2.3125 6.125 C1.87550781 5.40570312 1.43851562 4.68640625 0.98828125 3.9453125 C0 2 0 2 0 0 Z " fill="#1A9AA1" transform="translate(369,613)"/>
<path d="M0 0 C6.52307692 -0.36923077 6.52307692 -0.36923077 8.9375 1.5 C9.288125 1.995 9.63875 2.49 10 3 C6.86650268 4.04449911 6.01031744 3.93423645 3 3 C2.67 3.99 2.34 4.98 2 6 C2 4.68 2 3.36 2 2 C1.34 2 0.68 2 0 2 C0 1.34 0 0.68 0 0 Z " fill="#142225" transform="translate(868,600)"/>
<path d="M0 0 C0.33 0 0.66 0 1 0 C1 2.64 1 5.28 1 8 C-0.65 8.66 -2.3 9.32 -4 10 C-3.52449439 8.51965236 -3.04448784 7.04074979 -2.5625 5.5625 C-2.29566406 4.73878906 -2.02882813 3.91507813 -1.75390625 3.06640625 C-1 1 -1 1 0 0 Z " fill="#1BA7AE" transform="translate(882,601)"/>
<path d="M0 0 C1.258125 -0.04125 2.51625 -0.0825 3.8125 -0.125 C4.52019531 -0.14820313 5.22789062 -0.17140625 5.95703125 -0.1953125 C8 0 8 0 11 2 C11.6875 5.625 11.6875 5.625 12 9 C11.01 9.33 10.02 9.66 9 10 C9.04125 9.05125 9.0825 8.1025 9.125 7.125 C9.34973818 3.89755144 9.34973818 3.89755144 7 2 C4.67724823 1.59952556 2.34260643 1.2602896 0 1 C0 0.67 0 0.34 0 0 Z " fill="#1CB1B8" transform="translate(548,599)"/>
<path d="M0 0 C2.19510603 0.25361783 4.38228739 0.57765908 6.5625 0.9375 C8.35880859 1.22947266 8.35880859 1.22947266 10.19140625 1.52734375 C11.11824219 1.68332031 12.04507813 1.83929687 13 2 C13 2.33 13 2.66 13 3 C9.37 3 5.74 3 2 3 C1.67 4.65 1.34 6.3 1 8 C0.67 8 0.34 8 0 8 C-0.38063221 5.6739143 -0.71269945 3.33944736 -1 1 C-0.67 0.67 -0.34 0.34 0 0 Z " fill="#1A9DA3" transform="translate(699,614)"/>
<path d="M0 0 C2.97 0 5.94 0 9 0 C8.34 2.31 7.68 4.62 7 7 C6.34 6.67 5.68 6.34 5 6 C5 5.34 5 4.68 5 4 C3.35 4 1.7 4 0 4 C0 3.67 0 3.34 0 3 C1.65 2.67 3.3 2.34 5 2 C3.35 1.67 1.7 1.34 0 1 C0 0.67 0 0.34 0 0 Z " fill="#1BB4BA" transform="translate(548,610)"/>
<path d="M0 0 C0.99 0.33 1.98 0.66 3 1 C2.9071875 2.11375 2.9071875 2.11375 2.8125 3.25 C3.03094296 6.45383006 3.90250005 7.64031256 6 10 C4.1875 9.875 4.1875 9.875 2 9 C0.1875 6.125 0.1875 6.125 -1 3 C-0.67 2.01 -0.34 1.02 0 0 Z " fill="#1A9EA4" transform="translate(455,599)"/>
<path d="M0 0 C4.29 0 8.58 0 13 0 C11.66666667 2.66666667 10.33333333 5.33333333 9 8 C8.34 7.67 7.68 7.34 7 7 C7.99 5.02 8.98 3.04 10 1 C6.7 1 3.4 1 0 1 C0 0.67 0 0.34 0 0 Z " fill="#1DB8BF" transform="translate(200,599)"/>
<path d="M0 0 C2.98096832 0.23847747 4.6142558 0.70492665 7.125 2.25 C7.125 2.91 7.125 3.57 7.125 4.25 C5.475 4.25 3.825 4.25 2.125 4.25 C2.125 3.59 2.125 2.93 2.125 2.25 C-0.185 2.25 -2.495 2.25 -4.875 2.25 C-2.875 0.25 -2.875 0.25 0 0 Z " fill="#1C979E" transform="translate(462.875,596.75)"/>
<path d="M0 0 C-2.72301487 2.72301487 -5.59908228 4.17807979 -9 6 C-9.66 6 -10.32 6 -11 6 C-10.03628506 3.59071265 -9.34789837 2.23992991 -7.1875 0.75 C-4.67678635 -0.11081611 -2.63651351 -0.14647297 0 0 Z " fill="#1A979F" transform="translate(633,597)"/>
<path d="M0 0 C2.625 0.9375 2.625 0.9375 5 2 C5 2.99 5 3.98 5 5 C2 5 2 5 -0.1875 3 C-0.785625 2.34 -1.38375 1.68 -2 1 C-1.34 0.67 -0.68 0.34 0 0 Z " fill="#1AA2AA" transform="translate(301,597)"/>
<path d="M0 0 C2.62655933 0.35494045 4.57968261 0.72461964 6.8125 2.1875 C8.51995571 4.79361661 8.20267097 6.9599355 8 10 C6.79371992 7.66785852 5.8345262 5.50357861 5 3 C2.49552484 1.78130071 2.49552484 1.78130071 0 1 C0 0.67 0 0.34 0 0 Z " fill="#1B99A2" transform="translate(463,610)"/>
<path d="M0 0 C-3.74525799 3.74525799 -7.98270909 3.68909949 -13 4 C-8.98163041 -0.22211791 -5.74554569 -0.13058058 0 0 Z " fill="#28ACB0" transform="translate(435,439)"/>
<path d="M0 0 C0.8353125 0.9590625 0.8353125 0.9590625 1.6875 1.9375 C4.22066561 4.19680987 5.68341424 4.63149047 9 5 C9 5.33 9 5.66 9 6 C2.375 6.25 2.375 6.25 -1 4 C-1 3.34 -1 2.68 -1 2 C-1.66 1.67 -2.32 1.34 -3 1 C-2.01 0.67 -1.02 0.34 0 0 Z " fill="#1C999F" transform="translate(456,617)"/>
<path d="M0 0 C0.99 0 1.98 0 3 0 C3 3.63 3 7.26 3 11 C2.67 11 2.34 11 2 11 C1.87625 10.236875 1.7525 9.47375 1.625 8.6875 C1.11897208 5.79732864 1.11897208 5.79732864 -1 3 C-0.67 2.01 -0.34 1.02 0 0 Z " fill="#141C1F" transform="translate(803,611)"/>
<path d="M0 0 C0.66 0 1.32 0 2 0 C5 4.38461538 5 4.38461538 5 7 C5.66 7.33 6.32 7.66 7 8 C5.35 8 3.7 8 2 8 C1.34 5.36 0.68 2.72 0 0 Z " fill="#1A98A0" transform="translate(556,617)"/>
<path d="M0 0 C0.33 0 0.66 0 1 0 C1 2.64 1 5.28 1 8 C0.34 8 -0.32 8 -1 8 C-1.33 9.32 -1.66 10.64 -2 12 C-2.17835515 7.45194365 -1.99785435 4.1205746 0 0 Z " fill="#1BA7AE" transform="translate(326,600)"/>
<path d="M0 0 C-0.99 0 -1.98 0 -3 0 C-3.33 1.32 -3.66 2.64 -4 4 C-4.99 3.67 -5.98 3.34 -7 3 C-7.33 2.01 -7.66 1.02 -8 0 C-4.94736336 -0.98120464 -3.05263664 -0.98120464 0 0 Z " fill="#1C969D" transform="translate(298,621)"/>
<path d="M0 0 C0.33 0 0.66 0 1 0 C1.33 3.3 1.66 6.6 2 10 C0.35 10.33 -1.3 10.66 -3 11 C-2.67 10.34 -2.34 9.68 -2 9 C-1.34 9 -0.68 9 0 9 C0 6.03 0 3.06 0 0 Z " fill="#1CB4B9" transform="translate(546,614)"/>
<path d="M0 0 C0.33 0.66 0.66 1.32 1 2 C-0.65 2.66 -2.3 3.32 -4 4 C-4 4.66 -4 5.32 -4 6 C-4.99 6 -5.98 6 -7 6 C-6 3 -6 3 -2.9375 1.3125 C-1.968125 0.879375 -0.99875 0.44625 0 0 Z " fill="#27AAB0" transform="translate(872,524)"/>
<path d="M0 0 C3 3 3 3 3.07421875 5.48046875 C2.94660156 6.37378906 2.81898438 7.26710938 2.6875 8.1875 C2.56761719 9.08855469 2.44773437 9.98960937 2.32421875 10.91796875 C2.21722656 11.60503906 2.11023438 12.29210937 2 13 C1.67 13 1.34 13 1 13 C0.67 8.71 0.34 4.42 0 0 Z " fill="#172326" transform="translate(574,475)"/>
</svg>
